<?xml version="1.0" standalone="yes"?>
<svg xmlns="http://www.w3.org/2000/svg" width="1080" height="633">
<path style="fill:#000000; stroke:none;" d="M0 0L0 633L1080 633L1080 0L0 0z"/>
<path style="fill:#033060; stroke:none;" d="M434 108C434.176 109.878 434.438 111.199 435 113C442.085 103.447 423.882 105 419 105L383 105C377.982 105 370.773 106.3 366.059 104.397C359.766 101.855 361.964 90.4009 362.001 85C362.018 82.4523 361.812 79.4955 363.603 77.4337C367.641 72.7871 379.459 75 385 75L444 75L639 75L692 75C698.208 75 708.297 73.1166 713.852 76.3179C717.386 78.3547 716.993 82.457 717 86L717 112C716.993 115.54 717.373 119.887 713.852 121.972C708.841 124.939 698.676 123 693 123L643 123L579 123L475 123C480.707 125.395 488.846 124 495 124L539 124L664 124L702 124C705.885 124.008 711.35 126.167 714.956 125.129C719.871 123.715 719.977 118.153 719.999 114C720.048 104.667 720.004 95.3329 720 86C719.998 81.3371 720.278 76.6776 715.941 73.7423C710.697 70.1921 701.052 72 695 72L642 72L442 72L384 72C377.683 72 367.288 70.0117 362.148 74.4337C357.142 78.7405 358.998 88.0881 359 94C359.001 96.5933 358.721 99.46 359.434 101.985C360.121 104.418 361.683 106.295 364.044 107.258C370.098 109.725 379.539 108 386 108L434 108z"/>
<path style="fill:#043770; stroke:none;" d="M433 143C432.453 145.416 432.233 148.586 430.342 150.397C426.702 153.881 416.682 152 412 152L377 152C373.522 152 366.621 150.698 363.742 153.028C362.275 154.215 362.154 156.272 362.044 158.005C361.737 162.818 361.155 169.107 362.279 173.812C364.259 182.105 381.742 179 388 179L451 179C456.738 179 469.374 176.623 472.972 182.344C476.324 187.673 474 199.841 474 206L474 265L474 489L499 489C502.101 489 506.971 489.822 509.397 487.397C512.407 484.386 511 476.88 511 473L511 433L511 273C513.274 273.709 515.588 274.701 518.002 274.747C520.23 274.789 523.296 273.311 524.972 275.447C526.778 277.748 526 282.28 526 285L526 310L526 405C526 416.666 525.925 428.334 526.001 440C526.031 444.672 526.476 449.94 532.04 450.852C536.906 451.649 550.667 452.908 554.397 449.258C558.25 445.486 556 433.039 556 428L556 368L556 274L556 250C556 246.999 556.826 242.134 554.821 239.603C552.832 237.092 547.793 238 545 238L520 238C517.054 237.994 512.919 238.516 511.028 235.682C508.792 232.332 510 225.843 510 222C510 217.238 507.977 206.229 511.603 202.603C514.391 199.816 519.68 201.21 523 202C521.248 205.367 521.008 208.226 521 212C520.991 216.298 519.953 222.338 523.314 225.677C526.389 228.732 529.476 226.546 533.039 226.129C539.544 225.368 546.454 226 553 226C558.336 226 568.682 223.825 569.852 231.019C570.886 237.383 570 244.556 570 251L570 291L570 416L570 464C570 468.452 568.265 477.717 571.179 481.397C573.034 483.739 577.393 482.999 580 483L604 483L604 268L604 209C604 201.738 601.937 190.631 605.608 184.109C609.255 177.63 620.734 180 627 180L691 180C697.194 180 715.476 183.251 716.852 174.956C717.797 169.258 717.039 162.772 716.999 157C716.983 154.609 717.269 151.576 715.397 149.742C713.505 147.89 710.441 148.038 708 148.004C702.002 147.92 695.998 148 690 148L618 148L593 148C589.721 148 585.114 148.74 582.434 146.397C579.614 143.93 580.432 140.217 581 137C572.791 133.522 562.778 135 554 135L501 135C492.767 135 481.365 137.096 474 133C476.323 129.666 475.716 126.871 475 123L580 123L671 123L699 123C703.348 123 708.723 123.84 712.941 122.682C717.069 121.549 716.975 117.564 716.999 114C717.061 105.001 717.001 95.9993 717 87C717 83.681 717.942 78.4352 714.682 76.3179C709.921 73.2253 700.445 75 695 75L646 75L463 75L388 75C382.009 75 375.988 74.8272 370 75.0154C367.536 75.0929 364.579 75.1801 363.028 77.4337C361.033 80.332 362 85.668 362 89C362 92.88 360.593 100.386 363.603 103.397C366.614 106.407 374.12 105 378 105L416 105C420.992 105 427.13 104.044 431.981 105.318C434.105 105.876 436.42 107.444 436.079 109.961C435.328 115.491 425.756 114 422 114L392 114C387.795 114 382.023 113.002 378.059 114.603C371.892 117.094 373.787 128.662 374.019 133.999C374.133 136.611 374.471 139.228 377.148 140.397C381.211 142.171 387.642 141 392 141C404.836 141 420.924 138.373 433 143z"/>
<path style="fill:#032f60; stroke:none;" d="M373 84C378.127 89.2357 389.105 87 396 87L457 87L705 87C703.455 92.0909 699.809 91.9901 695 92L673 92L599 92L580 92.0008C577.064 92.0163 573.733 91.8258 571.279 93.7423C567.549 96.6546 567.612 103.856 572.874 105.137C575.06 105.67 577.786 104.209 580.015 104.054C586.288 103.618 592.712 104 599 104L668 104C680.785 104 694.402 102.661 707 105C700.791 100.296 686.625 103 679 103L605 103L581 103C578.284 102.994 573.832 103.593 572.288 100.687C570.428 97.1866 574.178 95.3138 577.015 95.0587C584.558 94.3806 592.427 95 600 95L683 95C689.197 95 696.969 96.2576 702.981 94.6821C705.971 93.8986 708.206 91.2845 707.623 88.0579C706.47 81.6721 693.621 84 689 84L629 84L373 84z"/>
<path style="fill:#032751; stroke:none;" d="M371 85C371.002 88.0811 370.087 93.6981 373.434 95.3966C378.866 98.1537 389.964 96 396 96C409.819 96 425.367 93.9943 439 96.2238C442.109 96.7321 444.929 98.3063 448 99C444.099 91.4963 435.279 93 428 93L374 93C374.11 90.5579 374.428 88.3773 375 86L371 85z"/>
<path style="fill:#000000; stroke:none;" d="M374 87L374 93L423 93C429.353 93 438.356 91.3865 443.942 95.0093C452.406 100.498 451.272 121.36 441.995 125.486C436.342 128.001 429.017 127 423 127L387 127L387 129L423 129C428.314 129 435.034 128.002 439.956 130.434C449.489 135.143 448.34 156.969 439.981 162.142C434.576 165.488 426.086 164 420 164L374 164C376.05 170.176 385.625 168 391 168L445 168L644 168L689 168C697.057 168 704.88 170.118 705 160L600 160C587.423 160 568.158 164.473 568 147L501 147C491.197 147 478.447 149.156 469.001 146.427C457.076 142.984 457.925 117.313 468.005 112.179C473.408 109.427 482.085 111 488 111L535 111L705 111L705 107L597 107C590.213 107 580.23 108.81 574.015 105.682C569.055 103.185 567.08 97.3586 572.134 93.7423C578.358 89.2892 592.625 92 600 92L673 92L695 92C699.877 91.9978 704.064 92.6098 705 87L374 87z"/>
<path style="fill:#03305d; stroke:none;" d="M447 100C445.231 105.985 448.347 115.724 444.258 120.682C441.117 124.49 433.368 123 429 123L386 123C390.469 124.875 396.191 124 401 124L430 124C433.981 124.008 440.405 126.571 443.945 124.918C450.823 121.708 450.94 105.201 447 100z"/>
<path style="fill:#032750; stroke:none;" d="M575 104L575 107L705 107L705 111L542 111L493 111C484.688 111 474.999 109.636 467 112C471.077 115.089 477.059 114 482 114L517 114L655 114L691 114C695.067 114 702.145 115.33 705.682 112.972C708.287 111.236 707.968 107.733 708 105C692.92 102.2 676.314 104 661 104L575 104z"/>
<path style="fill:#03274e; stroke:none;" d="M380 144C378.217 141.25 375.158 139.283 374.317 135.981C373.013 130.862 372.522 119.062 377.148 115.603C381.268 112.524 389.141 114 394 114L435 114C432.146 109.598 425.741 111 421 111L388 111C383.201 111 377.151 110.237 373.653 114.279C370.826 117.544 371.007 121.957 371 126C370.987 133.813 370.355 142.508 380 144z"/>
<path style="fill:#043366; stroke:none;" d="M466 112C461.936 116.869 463.553 119.214 463.946 125C464.283 129.962 464 135.027 464 140C465.989 135.261 464.966 129.098 465.001 124C465.02 121.275 464.739 117.9 467.318 116.179C471.702 113.253 480.935 115 486 115L532 115L706 115C701.031 112.915 694.35 114 689 114L653 114L523 114L487 114C479.885 114 472.665 114.824 466 112z"/>
<path style="fill:#032c59; stroke:none;" d="M462 119C460.078 125.503 458.744 140.694 465.144 145.142C468.253 147.302 472.406 146.994 476 147L495 147L570 147C566.183 141.112 550.471 144 544 144L491 144C484.446 144 474.205 145.927 468.133 143.258C459.807 139.597 466.673 125.168 462 119z"/>
<path style="fill:#03244b; stroke:none;" d="M384 132L419 132C425.97 132 433.183 132.623 440 131C440.936 132.949 441.392 133.55 443 135C443.106 128.42 434.995 129.008 430 129L387 129L387 127L421 127C427.239 127 433.988 127.777 440 126C436.309 123.204 431.485 124 427 124L399 124C395.346 124 389.677 122.953 386.318 124.603C383.61 125.934 384.03 129.479 384 132M475 124C477.959 128.564 485.096 127 490 127L531 127L654 127L691 127C697.834 127 705.416 127.946 712 126C707.388 122.506 699.592 124 694 124L649 124L475 124z"/>
<path style="fill:#032d5c; stroke:none;" d="M474 132C476.531 135.51 479.92 134.998 484 135L502 135L551 135C561.058 135 571.329 133.982 581 137C580.25 140.188 579.172 144.726 582.434 146.972C585.331 148.967 590.669 148 594 148L623 148L691 148C697.028 148 711.046 145.427 715.397 150.434C717.384 152.72 716.994 156.192 717 159L717 176L720 176C720 168.55 723.026 152.745 716.852 147.434C713.539 144.583 709.074 145.002 705 145L681 145L583 145C582.95 142.646 582.981 140.236 582.107 138.003C578.587 129.021 564.702 132 557 132L474 132z"/>
<path style="fill:#032751; stroke:none;" d="M444 136C441.947 142.945 446.231 155.858 438.532 159.852C434.183 162.107 427.747 161 423 161L388 161C380.259 161 369.506 158.986 372 170L376 169L374 164L417 164C423.56 164 431.654 165.26 437.999 163.427C447.271 160.751 449.191 142.852 444 136z"/>
<path style="fill:#033063; stroke:none;" d="M379 141C381.74 145.227 387.428 144 392 144L416 144C421.282 144 426.208 144.493 431 142C426.031 139.915 419.35 141 414 141L379 141z"/>
<path style="fill:#03274e; stroke:none;" d="M429 142L431 147C423.578 148.767 415.591 148 408 148L368 148L368 151L416 151C424.144 151 432.077 153.023 433 143L429 142z"/>
<path style="fill:#04366d; stroke:none;" d="M359 177C369.842 180.848 380.55 180 392 180L440 180L461 180C463.582 180.005 467.462 179.49 469.423 181.603C472 184.381 470 194.264 470 198L470 247L470 440L470 473C470 477.532 468.923 483.823 471.179 487.941C472.44 490.243 474.461 491.451 477.004 491.852C484.016 492.958 491.903 492.015 499 492C502.845 491.992 505.652 492.256 508 489L474 489L474 270L474 208L474 191C474 188.341 474.548 184.827 473.397 182.344C470.718 176.57 457.172 179 452 179L387 179C379.849 179 363.525 182.044 362.133 171.96C361.532 167.597 360.432 156.985 363.742 153.603C367.062 150.212 376.637 152 381 152L431 152C426.031 149.915 419.35 151 414 151L378 151C373.235 150.998 365.053 147.592 361.433 151.319C356.386 156.514 359 170.266 359 177z"/>
<path style="fill:#033063; stroke:none;" d="M569 154C570.767 159.952 575.487 159.991 581 160L602 160L705 160C704.653 170.652 694.038 168 686 168L627 168L454 168L403 168C392.645 168 381.956 166.893 372 170C378.678 172.802 388.784 171 396 171L448 171L631 171L692 171C698.513 171 711.777 172.064 707.396 161.059C705.801 157.053 701.684 157.026 698 157.001C690.001 156.946 681.999 157 674 157L599 157C590.998 157 577.115 159.773 571 154L569 154z"/>
<path style="fill:#032954; stroke:none;" d="M717 176C711.613 182.105 701.484 180 694 180L633 180C626.288 180 611.238 177.123 607 183L691 183C700.542 183 715.103 186.248 720 176L717 176z"/>
<path style="fill:#032a54; stroke:none;" d="M359 177C365.777 186.094 379.817 183 390 183L444 183C452.778 183 462.791 181.522 471 185C471.072 180.533 468.068 180.081 464 180.005C457.671 179.886 451.33 180 445 180L394 180C385.605 180 376.291 181.132 368 179.776C364.891 179.268 362.071 177.694 359 177z"/>
<path style="fill:#032a57; stroke:none;" d="M486 480C484.329 466.779 485 453.323 485 440L485 377L485 183L597 183C593.383 177.421 580.069 180 574 180L508 180C501.676 180 495.321 179.816 489.001 180.015C486.711 180.088 483.797 180.081 482.603 182.434C480.278 187.016 482 195.935 482 201L482 247L482 412L482 462C482 467.964 480.033 476.71 486 480z"/>
<path style="fill:#033063; stroke:none;" d="M606 181L606 393L606 454C606 461.222 608.304 473.193 605.397 479.852C603.683 483.776 598.499 482.998 595 483C588.589 483.003 579.247 484.714 573.211 482.416C571.307 481.691 569.743 480.028 568 479C568 482.289 568.601 485.3 572 487C573.482 487.741 577.307 487 579 487C585.373 487 592.258 487.436 598 486C602.365 484.909 606.315 487.371 609 482C609.634 480.732 609 477.448 609 476L609 461L609 406L609 248L609 199C609 194.85 610.61 186.756 609 183C608.154 181.027 607.328 183.688 608 181L606 181z"/>
<path style="fill:#04366e; stroke:none;" d="M481 182C478.947 190.624 480 200.174 480 209L480 257L480 410L480 462C480 468.484 478.041 476.927 484 481C481.071 471.614 482 461.76 482 452L482 407L482 254L482 205C482 198.049 483.701 188.436 481 182z"/>
<path style="fill:#000000; stroke:none;" d="M485 183L485 410L485 456C485 461.396 483.191 470.779 485.603 475.682C487.07 478.663 492.201 478.317 494.941 477.772C500.571 476.651 499 469.321 499 465L499 423L499 314L499 282C499 277.369 498.034 271.395 499.742 267.005C500.858 264.139 503.156 262.097 506.004 261.032C513.325 258.295 530.479 258.035 535.4 265.058C538.42 269.367 537.998 275.997 538 281L538 315L538 365L538 439L544 439L544 310L544 271C544 265.271 545.319 257.66 543.682 252.148C542.416 247.884 536.438 249 533 249L514 249C510.847 249 507.02 249.54 504.015 248.397C499.988 246.864 498.297 243.036 498.044 239C497.423 229.078 498 218.942 498 209C498 204.616 497.124 199.038 499.179 195.005C502.934 187.635 511.065 189 518 189L565 189C572.746 189 580.252 188.904 582.467 198C584.635 206.907 583 217.86 583 227L583 285L583 472L595 472L595 183L485 183z"/>
<path style="fill:#03366f; stroke:none;" d="M595 183L595 472L587 472L588 475C577.624 474.303 579 466.224 579 458L579 409L579 261L579 217C579 209.278 580.198 200.434 578 193C576.443 199.482 578 208.203 578 215L578 262L578 412L578 458C578 462.702 576.237 471.749 580.318 475.106C584.341 478.416 591.243 476.039 596 476C598.166 464.335 597 451.835 597 440L597 378L597 183L595 183z"/>
<path style="fill:#04376f; stroke:none;" d="M605 184C602.221 193.403 604 205.218 604 215L604 278L604 483C607.749 478.051 606 469.012 606 463L606 412L606 251L606 205C606 198.58 607.497 189.951 605 184z"/>
<path style="fill:#033369; stroke:none;" d="M545 247C536.882 243.593 523.797 246 515 246C511.537 246 505.423 247.135 502.742 244.397C500.89 242.505 501.038 239.441 501.004 237C500.929 231.669 501 226.332 501 221C501 214.669 500.915 208.331 501.004 202C501.045 199.082 501.03 195.692 503.434 193.603C507.105 190.413 515.468 192 520 192L561 192C565.404 192 573.068 190.558 576.682 193.603C580.892 197.151 579 207.079 579 212L579 263L579 473C581.395 467.293 580 459.154 580 453L580 410L580 259L580 210C580 205.551 582.605 195.8 580.204 192.228C576.814 187.185 567.174 189 562 189L522 189C516.616 189 509.103 187.667 504.015 189.603C498.641 191.649 498.027 197.013 498.001 202C497.946 212.333 498 222.667 498 233C498 237.062 497.189 242.363 499.742 245.852C502.588 249.74 507.761 249 512 249C522.396 249.001 535.303 251.109 545 247z"/>
<path style="fill:#032a54; stroke:none;" d="M581 196C578.802 203.435 580 212.278 580 220L580 264L580 411L580 459C580 466.649 578.24 474.682 588 475C586.554 472.717 585.689 472.418 583 472L583 269L583 217C583 210.782 584.873 201.113 581 196z"/>
<path style="fill:#032d5d; stroke:none;" d="M558 242C556.934 235.259 551.934 235.01 546 235L513 235L513 204L523 204C520.91 200.777 512.779 198.897 510.603 203.318C509.529 205.501 510.001 208.647 510 211L510 228C510.001 230.469 509.376 234.311 511.028 236.397C513.468 239.478 521.524 238 525 238C535.825 238 548.931 235.47 558 242z"/>
<path style="fill:#032951; stroke:none;" d="M534 201C536.334 204.6 539.995 203.998 544 204L567 204L567 213C556.623 213 543.968 211.054 534 214C539.591 218.236 551.172 216 558 216C560.804 216 564.145 216.443 566.852 215.566C571.1 214.19 571.211 205.418 568.397 202.603C566.141 200.348 561.886 201.001 559 201L534 201z"/>
<path style="fill:#000000; stroke:none;" d="M536 204L536 213L567 213L567 204L536 204z"/>
<path style="fill:#032751; stroke:none;" d="M529 226L529 229L567 229L567 479L570 479L570 293L570 245C570 240.68 571.779 231.148 568.972 227.603C566.853 224.927 560.98 226 558 226L529 226z"/>
<path style="fill:#053369; stroke:none;" d="M558 240C557.274 242.179 557.561 241.78 556 241L556 448C557.661 447.792 557.54 447.505 558 449C559.981 444.28 559 438.08 559 433L559 402L559 293L559 257C559 251.65 560.085 244.969 558 240z"/>
<path style="fill:#032d5d; stroke:none;" d="M542 248C544.48 253.854 544 259.747 544 266L544 293L544 391L544 426C544 430.571 542.773 436.26 547 439L547 292L547 258C546.998 253.485 547.731 247.908 542 248z"/>
<path style="fill:#053265; stroke:none;" d="M545 247C547.936 253.928 547 261.603 547 269L547 306L547 439C543.969 438.661 541.046 438.895 538 439L538 305C538 295.028 538.397 284.963 537.961 275C537.696 268.974 536.752 263.772 531 261C531.905 264.349 534.207 267.139 534.846 270.579C535.752 275.453 535 281.049 535 286L535 317L535 395L535 429C535 432.242 533.861 438.643 536.742 440.972C540.394 443.924 547.1 441.317 547.852 436.906C549.886 424.968 548 411.118 548 399L548 247L545 247z"/>
<path style="fill:#03274e; stroke:none;" d="M507 260L507 263L529 263L529 260L507 260z"/>
<path style="fill:#033060; stroke:none;" d="M484 480C488.28 481.796 498.215 482.508 500.972 477.852C503.118 474.228 502 468.051 502 464L502 432L502 313L502 282C502 277.487 500.947 271.373 502.599 267.104C503.501 264.771 505.702 263.101 507 261C499.229 262.21 499.003 268.32 499 275L499 317L499 433L499 463C499 466.557 500.096 472.48 497.972 475.566C495.435 479.252 487.91 477.966 484 480z"/>
<path style="fill:#032d5d; stroke:none;" d="M511 273L511 422L511 460C511 467.535 512.396 476.649 510.687 484C510.027 486.839 508.151 489.347 507 492C514.101 489.512 513.997 483.627 514 477L514 439L514 329L514 295C514 288.03 513.377 280.817 515 274L511 273z"/>
<path style="fill:#03234c; stroke:none;" d="M521 274C522.223 275.195 522.42 275.316 524 276L524 273C522.203 273 522.479 273.014 521 274z"/>
<path style="fill:#03366f; stroke:none;" d="M524 273C521.2 288.08 523 304.686 523 320L523 407L523 435C523 441.406 522.245 446.107 528 450C523.672 436.129 526 419.462 526 405L526 320L526 287C526 282.284 526.945 276.888 524 273z"/>
<path style="fill:#052c5a; stroke:none;" d="M523 447C524.209 449.515 525.405 451.371 528.019 452.684C531.355 454.359 535.384 453.999 539 454C546.201 454.003 555.534 455.524 558 447C546.869 453.601 534.359 451.675 523 447z"/>
<path style="fill:#033366; stroke:none;" d="M305 532C305.985 529.668 305.981 527.543 306 525L362 525L362 531C363.464 528.22 364.523 524.231 360.848 522.603C357.29 521.028 351.812 522 348 522L320 522C316.258 522 309.572 520.75 306.357 523.028C303.708 524.905 304.892 529.257 305 532z"/>
<path style="fill:#032d5d; stroke:none;" d="M563 602C563.92 604.55 565.639 608.031 563.381 610.397C561.204 612.678 556.829 611.999 554 612L531 612C526.523 612 520.662 612.944 517.603 608.852C513.786 603.746 516 592.101 516 586L516 548C516 541.166 516.946 533.584 515 527C517.859 525.816 519.032 524.948 520 522C511.557 524.958 513 533.533 513 541L513 593C513 599.651 510.963 610.044 518.044 613.821C521.516 615.673 526.206 615 530 615L552 615C555.428 615 559.722 615.652 562.981 614.397C569.227 611.99 569.172 603.95 563 602z"/>
<path style="fill:#043770; stroke:none;" d="M520 522C518.661 524.476 517.412 525.52 515 527C516.695 534.12 516 541.719 516 549L516 586C516 592.13 513.834 603.457 517.028 608.852C519.27 612.639 524.239 611.998 528 612C537.666 612.004 547.334 612.066 557 611.999C560.861 611.973 566.05 611.532 564.547 606.143C563.426 602.125 558.212 603.001 555 603C547.757 602.997 527.692 606.734 526.148 596.995C523.937 583.044 526 567.136 526 553C526 548.497 524.429 540.213 527.028 536.318C528.919 533.484 533.054 534.006 536 534C544.324 533.983 552.779 534.984 560.981 534.972C565.094 534.966 566.659 530.483 565.392 527.019C563.425 521.644 557.711 522.002 553 522L520 522z"/>
<path style="fill:#032a54; stroke:none;" d="M595 537C601.333 537 607.667 536.957 614 537.001C616.91 537.021 620.215 536.841 622.258 539.318C625.213 542.902 624.002 549.687 624 554C623.999 557.354 624.606 561.806 622.258 564.566C617.381 570.299 607.61 564.022 602.318 569.318C597.708 573.931 601.11 580.929 607.001 581.852C616.784 583.384 629.014 582.084 635.606 573.96C640.14 568.372 640 560.81 640 554C640.001 538.833 639.175 526.08 622 522L622 525C623.797 525 623.522 524.986 625 524C627.718 527.89 632.726 529.567 634.972 534.004C636.482 536.986 636 540.767 636 544C636 551.291 637.68 561.046 635.297 567.996C632.23 576.941 621.165 579.014 613 579C610.371 578.996 606.638 579.482 604.608 577.397C602.459 575.189 603.486 571.768 606.148 570.603C612.464 567.84 620.455 572.794 625.258 565.891C627.604 562.519 627 557.885 627 554C627 549.254 628.211 542.434 625.682 538.189C623.338 534.254 619.107 534.027 615 534.001C607.334 533.951 599.666 534 592 534L592 595C592 599.008 593.813 614.127 586.043 612.248C579.591 610.688 582 596.821 582 592L582 545C582 537.151 580.526 529.551 587 524C583.699 522.215 581.075 524.583 579.742 528.005C577.633 533.418 579 541.267 579 547L579 589C579 595.482 577.652 603.718 579.434 609.982C581.451 617.072 590.557 617.075 593.821 610.956C596.747 605.471 595 596.059 595 590L595 569L595 537z"/>
<path style="fill:#043770; stroke:none;" d="M586 522C585.189 524.922 582.798 526.917 582.228 530.015C581.008 536.647 582 544.267 582 551L582 592C582 596.799 579.247 614.251 587.896 612.623C594.245 611.428 592 598.574 592 594L592 534L612 534C615.669 534.002 619.663 533.636 622.811 535.893C628.789 540.181 628.729 556.618 626.258 562.996C625.425 565.144 623.876 566.992 621.956 568.258C616.829 571.638 610.439 568.082 605.318 570.603C602.426 572.027 602.426 576.973 605.318 578.397C607.98 579.707 612.121 579.005 615 579C617.675 578.996 620.4 579.101 623 578.363C637.703 574.189 636 562.563 636 550C636 545.141 637.117 538.614 635.397 534.004C633.619 529.241 628.451 527.27 625 524L622 525C621.096 520.779 616.654 522 613 522L586 522z"/>
<path style="fill:#032a54; stroke:none;" d="M663 615C661.583 612.331 659.408 609.9 658.569 606.961C657 601.468 658 594.667 658 589L658 553C658 545.848 656.583 536.95 658.43 530.015C659.226 527.026 661.502 524.646 663 522C653.558 524.674 655 534.037 655 542L655 596C655 603.933 654.14 611.954 663 615z"/>
<path style="fill:#043770; stroke:none;" d="M663.301 522.938C654.278 527.516 658 546.652 658 555L658 596C658 600.112 656.615 608.035 660.514 610.821C662.803 612.457 666.353 611.996 669 612L686 612C690.687 612 701.585 614.013 705.396 610.972C709.869 607.403 704.687 603.185 700.985 603.019C694.018 602.708 686.974 603.003 680 603C676.904 602.999 672.873 603.549 670.318 601.397C666.519 598.196 668 590.405 668 586C668 570.939 665.733 553.873 668.148 539.019C668.617 536.138 670.138 534.617 673.019 534.148C680.566 532.921 690.399 533.327 698 534.128C700.778 534.421 704.133 536.078 706.397 533.628C710.112 529.607 706.53 523.477 701.995 522.318C693.91 520.252 683.336 522 675 522C671.367 522 666.647 521.241 663.301 522.938z"/>
<path style="fill:#033366; stroke:none;" d="M717 535C717.366 531.674 717.026 528.357 717 525L759 525C764.042 525 770.761 526.491 774 522C756.546 522 738.382 520.535 721.001 522.059C713.673 522.701 712.218 530.317 717 535z"/>
<path style="fill:#032c5a; stroke:none;" d="M773 523C773.772 527.223 773.532 530.77 773 535C778.14 532.166 778.14 525.834 773 523z"/>
<path style="fill:#032a54; stroke:none;" d="M303 525C298.877 539.391 316.986 537 326 537L326 593C326 600.296 324.049 609.748 330 615C328.532 596.394 329 577.689 329 559C329 553.214 331.267 541.256 327.972 536.318C324.759 531.503 314.846 534.946 310.019 533.566C305.613 532.307 305.43 528.134 303 525z"/>
<path style="fill:#043770; stroke:none;" d="M306 525C306.008 527.194 305.534 530.419 307.028 532.258C311.812 538.146 325.927 529.201 329.397 537.148C331.997 543.104 330 553.555 330 560L330 612L338 612L338 560C338 553.372 336.102 543.252 338.603 537.059C342.301 527.902 356.061 537.538 360.972 531.398C362.311 529.724 361.976 526.987 362 525L306 525z"/>
<path style="fill:#032751; stroke:none;" d="M364 525L361 535C356.303 533.882 344.409 531.798 340.603 535.603C336.977 539.23 339 550.238 339 555L339 590C339 597.281 338.305 604.88 340 612C343.846 606.371 342 596.608 342 590L342 537C347.558 537 354.731 538.178 359.985 536.107C364.896 534.169 366.915 529.348 364 525z"/>
<path style="fill:#043770; stroke:none;" d="M717 525L717 536C725.149 533.457 732.62 533.941 741 535L741 565C741 578.658 740.747 592.344 741.005 605.999C741.078 609.873 744.68 616.55 748.972 611.258C751.896 607.653 750 597.442 750 593L750 551C750 546.938 748.463 538.744 751.603 535.603C756.081 531.126 768.84 534.39 774 536C773.59 532.333 773.972 528.69 774 525L717 525z"/>
<path style="fill:#033062; stroke:none;" d="M338 612L330 612C331.532 616.352 337.673 616.934 339.227 611.891C340.636 607.317 339 599.873 339 595L339 556C339 550.753 336.858 539.361 341.318 535.603C345.688 531.922 355.888 534.051 361 535C357.571 531.076 339.96 531.08 338.318 537.059C336.375 544.135 338 553.675 338 561L338 612z"/>
<path style="fill:#043063; stroke:none;" d="M327 534C330.371 541.956 329 551.495 329 560L329 611C331.292 605.537 330 597.887 330 592L330 552C330 546.636 331.992 537.236 327 534z"/>
<path style="fill:#032751; stroke:none;" d="M565 602C561.394 599.537 557.251 600 553 600L529 600L529 537C539.084 537 551.312 538.864 561 536C555.108 531.536 542.218 533.985 535 534C532.58 534.005 528.745 533.435 527.028 535.603C524.577 538.698 526 546.269 526 550L526 587C526 590.88 524.593 598.386 527.603 601.397C530.029 603.822 534.899 603 538 603C546.826 603.001 556.376 604.053 565 602z"/>
<path style="fill:#032951; stroke:none;" d="M705 603L705 600L671 600L671 537C681.084 537 693.312 538.864 703 536C699.112 533.055 693.716 534 689 534C684.295 534 673.439 531.99 669.603 535.028C666.927 537.147 668 543.02 668 546L668 576C668 582 667.959 588.001 668.001 594C668.017 596.418 667.732 599.526 669.603 601.397C672.029 603.822 676.899 603 680 603L705 603z"/>
<path style="fill:#03274e; stroke:none;" d="M719 535C723.729 538.582 734.211 537.636 740 537C736.391 531.892 724.406 533.402 719 535z"/>
<path style="fill:#032c59; stroke:none;" d="M741 535C736.605 540.095 738 547.652 738 554L738 599C738 605.001 736.692 616.325 745.999 615.663C755.041 615.02 753 603.167 753 597L753 537C759.243 537 765.986 537.778 772 536C767.973 532.949 761.898 533.912 757.001 534.005C755.019 534.042 752.406 533.864 751.028 535.603C747.876 539.583 750 551.103 750 556L750 595C750 599.195 751.473 606.963 748.972 610.566C746.669 613.883 742.29 612.474 741.318 608.941C739.372 601.868 741 592.323 741 585L741 565L741 535z"/>
<path style="fill:#032d5a; stroke:none;" d="M386 600C389.788 606.696 397.233 605.011 404 605C407.549 604.994 411.624 605.295 414.606 602.991C417.378 600.849 419.562 587.713 425.382 593.608C429.135 597.41 424.644 604.424 421.481 606.934C413.561 613.222 400.597 613.014 391 611.815C372.44 609.496 376 588.551 376 575C376 569.26 374.978 562.389 377.367 557.015C379.913 551.289 387.084 550.526 389 545C369.443 549.688 373 569.238 373 585C373 595.322 371.999 605.775 382.001 612.005C386.962 615.096 392.374 615 398 615C406.315 615.001 414.695 615.852 421.985 611.031C427.696 607.254 434.371 594.737 425.891 590.029C416.401 584.759 416.616 598.797 410.891 601.258C403.838 604.29 393.077 601.618 386 600z"/>
<path style="fill:#043770; stroke:none;" d="M389 545C386.345 549.608 380.488 550.311 377.84 555.104C375.645 559.076 376 563.622 376 568L376 590C376 594.884 375.671 599.981 378.109 604.409C383.936 614.992 406.087 614.022 415.996 610.451C419.808 609.078 423.918 606.553 425.579 602.674C427.289 598.682 427.34 589.321 420.316 592.608C417.892 593.743 417.965 596.816 416.995 598.958C415.469 602.327 412.604 604.215 408.999 604.786C404.111 605.561 393.785 606.517 389.529 603.682C381.639 598.425 384 584.989 384 577C384 571.079 382.336 561.78 387.279 557.336C390.291 554.629 393.534 556.489 397 556.871C403.425 557.579 414.338 553.182 417.397 561.04C418.002 562.595 417.984 564.359 417.992 566C418.05 578.092 403.436 576.575 395 573C394.485 576.043 394.875 578.909 395 582L416 582C418.625 581.999 422.273 582.551 424.566 580.972C428.342 578.374 427.006 570.918 427 567C426.994 563.264 427.022 559.541 425.517 556.04C423.598 551.575 420.173 550.342 416.09 548.385C407.232 544.14 398.779 545 389 545z"/>
<path style="fill:#032a54; stroke:none;" d="M412 545C414.791 549.31 420.056 549.462 423.351 553.329C430.945 562.244 426.892 576.359 422 585C429.973 582.742 430.002 576.115 430 569C429.996 556.574 425.865 546.22 412 545z"/>
<path style="fill:#032e5b; stroke:none;" d="M483 545C484.483 549.264 488.639 549.537 491.811 552.393C495.334 555.566 496.05 559.471 495.995 564C495.966 566.34 496.053 569.576 493.687 570.914C491.625 572.079 489.475 570.833 488.603 568.851C486.466 563.991 489.002 560.002 483.941 556.228C479.021 552.559 465.882 552.709 460.129 554.573C456.169 555.855 454.368 560.154 454.058 564C453.276 573.692 453.452 584.294 454.044 594C454.279 597.846 455.85 602.254 459.518 604.142C462.01 605.425 465.294 604.999 468 605C474.558 605.003 482.145 606.347 486.258 599.981C488.361 596.724 486.687 589.146 491.129 587.89C496.804 586.286 496.317 595.765 495.74 598.911C493.272 612.374 477.397 612.017 467 612C460.232 611.989 452.242 611.214 448.228 604.906C445.752 601.013 446.002 596.42 446 592L446 569C446 565.083 445.48 560.683 447.09 557.004C449.496 551.503 456.167 550.366 458 545C440.56 550.036 443 565.292 443 580C443 587.595 441.165 598.037 444.688 604.996C450.179 615.843 462.703 615 473 615C477.718 615 482.538 615.341 487 613.517C495.076 610.216 499.013 603.414 498.998 595C498.991 590.377 497.951 584.457 492 584.457C481.784 584.457 487.866 599.366 478.981 601.682C476.773 602.258 474.26 601.999 472 602C468.62 602.002 464.174 602.698 461.109 600.972C454.356 597.171 457 583.473 457 577C457 572.198 455.539 564.315 458.742 560.303C462.786 555.24 479.217 555.048 483.142 560.279C485.715 563.707 484.059 568.453 486.603 571.852C489.082 575.164 493.719 575.637 496.682 572.682C499.031 570.34 498.993 567.086 498.998 564C499.016 553.548 492.982 547.372 483 545z"/>
<path style="fill:#043770; stroke:none;" d="M458 545C455.317 549.728 449.417 550.782 447.09 556.015C445.346 559.936 446 564.818 446 569L446 592C446 596.288 445.554 601.003 447.688 604.906C450.826 610.644 458.036 611.923 464 611.996C474.341 612.123 489.87 614.173 494.941 602.381C496.346 599.115 497.892 588.297 492.871 587.427C487.016 586.411 487.428 598.49 483.891 601.852C479.104 606.403 470.184 605.421 464.015 604.945C459.028 604.56 455.606 600.773 454.419 595.999C452.314 587.534 453.941 576.706 454.001 568C454.032 563.377 454.833 557.916 459.26 555.318C465.429 551.698 479.798 553.016 484.852 557.773C488.866 561.551 486.499 565.413 488.603 569.682C489.623 571.751 492.55 572.391 494.397 570.968C496.368 569.449 495.989 566.181 495.999 564C496.02 559.697 495.948 555.605 492.656 552.393C489.498 549.313 485.283 548.952 483 545L458 545z"/>
<path style="fill:#03274e; stroke:none;" d="M389 601C387.356 592.145 388 582.977 388 574C388 570.316 387.233 565.548 388.602 562.056C389.607 559.492 391.765 558.331 394 557C390.559 554.45 386.508 555.479 385.318 560.019C382.913 569.195 384.98 581.517 385 591C385.009 595.512 384.948 598.515 389 601z"/>
<path style="fill:#032751; stroke:none;" d="M409 556C414.235 561.295 414.999 564.586 415 572C408.757 572 402.014 571.222 396 573C400.027 576.05 406.1 575.089 410.996 574.995C413.314 574.951 416.044 575.063 417.258 572.682C420.661 566.006 417.635 554.601 409 556z"/>
<path style="fill:#042d5a; stroke:none;" d="M544.004 557.746C532.057 562.21 538.042 581.664 549.999 577.393C562.147 573.053 556.527 553.067 544.004 557.746z"/>
<path style="fill:#042956; stroke:none;" d="M686.004 557.746C673.387 562.46 680.729 582.195 692.985 577.141C704.985 572.193 698.103 553.225 686.004 557.746z"/>
<path style="fill:#043770; stroke:none;" d="M544.059 560.746C535.874 564.046 541.154 577.876 549.891 574.254C558.114 570.845 552.988 557.146 544.059 560.746M686.109 560.746C677.955 564.125 683.251 577.677 691.956 574.254C701.191 570.622 694.992 557.065 686.109 560.746z"/>
<path style="fill:#033163; stroke:none;" d="M384 561L384 597C385.441 593.565 385 589.702 385 586C385 578.52 386.903 567.919 384 561z"/>
<path style="fill:#032755; stroke:none;" d="M393 575C391.567 580.048 392.775 583.484 398 585C396.33 581.71 395.22 577.859 393 575z"/>
<path style="fill:#033066; stroke:none;" d="M397 582C400.292 587.078 419.708 587.078 423 582L397 582z"/>
<path style="fill:#032f60; stroke:none;" d="M705 601C705.735 603.785 707.758 607.905 705.381 610.397C702.891 613.007 697.237 612 694 612L662 612C664.334 615.6 667.995 614.998 672 615L694 615C697.428 615 701.722 615.652 704.981 614.397C711.863 611.744 710.627 603.838 705 601z"/>
</svg>
